<svg xmlns="http://www.w3.org/2000/svg" width="1500" height="139.13" viewBox="0 0 1500 139.13"><path d="M587.34,74a3.2,3.2,0,0,0-2.68-1.45H554.74l10.15-22.72a3.19,3.19,0,0,0-3.25-4.49L535.74,48,532.2,34.74a3.2,3.2,0,0,0-5.35-1.43L499,61.14a3.18,3.18,0,0,0-.83,3.09,3.22,3.22,0,0,0,2.26,2.26l22.43,6h-26.5A3.21,3.21,0,0,0,493.44,77a51.36,51.36,0,0,0,94.15,0A3.2,3.2,0,0,0,587.34,74ZM556.79,52.22,547.73,72.5h-5.3L529.77,55Zm-49.33,9.52,20-20,1.85,6.89-5.7.59a3.2,3.2,0,0,0-2.26,5.06l10,13.86Zm57.6,32.39a44.95,44.95,0,0,1-63.5-15.23h77.91A44.86,44.86,0,0,1,565.06,94.13Z" fill="#009341"/><path d="M187.5,94.14l6.19,0c87.61-.43,89.67-10,181.31-10,68.67,0,87,5.37,128.81,8.24,3.34.23,3.53.44,7.21.63" fill="none" stroke="#009341" stroke-miterlimit="10" stroke-width="3"/><path d="M1041.58,88.46c3.48-.36,3.05-.72,6.69-1.07,18.88-1.8,41-3.25,76.72-3.25,93.75,0,93.75,10,187.5,10,10.59,0,20-.13,28.46-.35l4.65-.14" fill="none" stroke="#009341" stroke-miterlimit="10" stroke-width="3"/><path d="M1500,84.14c-50.68,0-74,2.92-99.46,5.6-2.32.25-3.1.49-5.48.73" fill="none" stroke="#009341" stroke-miterlimit="10" stroke-width="3"/><path d="M976.32,93.31c-3.14.14-3.24.26-6.67.37-8.39.26-19.77.45-32.16.46-93.75,0-93.75-10-187.5-10-89.21,0-93.53,9-174.52,9.93-3.34,0-2.48.06-6.09.06" fill="none" stroke="#009341" stroke-miterlimit="10" stroke-width="3"/><path d="M139.71,93.16c-2.35-.11-2.12-.24-4.32-.37C88.79,90.07,72.18,84.14,0,84.14" fill="none" stroke="#009341" stroke-miterlimit="10" stroke-width="3"/><line x1="317.22" y1="99.28" x2="333.08" y2="99.28" fill="none" stroke="#009341" stroke-miterlimit="10" stroke-width="3"/><line x1="88.22" y1="111.33" x2="104.08" y2="111.33" fill="none" stroke="#009341" stroke-miterlimit="10" stroke-width="3"/><line x1="404.76" y1="111.33" x2="420.62" y2="111.33" fill="none" stroke="#009341" stroke-miterlimit="10" stroke-width="3"/><line x1="670.56" y1="115.77" x2="686.42" y2="115.77" fill="none" stroke="#009341" stroke-miterlimit="10" stroke-width="3"/><line x1="928.75" y1="109.43" x2="944.6" y2="109.43" fill="none" stroke="#009341" stroke-miterlimit="10" stroke-width="3"/><line x1="1153.94" y1="111.96" x2="1169.8" y2="111.96" fill="none" stroke="#009341" stroke-miterlimit="10" stroke-width="3"/><line x1="1464.15" y1="103.72" x2="1480" y2="103.72" fill="none" stroke="#009341" stroke-miterlimit="10" stroke-width="3"/><line x1="721.31" y1="100.55" x2="738.44" y2="100.55" fill="none" stroke="#009341" stroke-miterlimit="10" stroke-width="3"/><line x1="1114.61" y1="98.01" x2="1129.84" y2="98.01" fill="none" stroke="#009341" stroke-miterlimit="10" stroke-width="3"/><path d="M1391.37,59.9h0c-5.44,0-9.87,4.06-9.87,9V81.4a1.52,1.52,0,0,1-1.57,1.45h-6V36.42c0-8.31-7.39-15.08-16.47-15.08S1341,28.11,1341,36.42V52.77h-5.16a.93.93,0,0,1-1-.89V42.31c0-4.35-3.86-7.89-8.61-7.89s-8.46,3.47-8.46,7.75V56c0,6.86,6.09,12.44,13.58,12.44H1341v37.43a3,3,0,0,0,3.09,2.84h26.75a3,3,0,0,0,3.09-2.84V101h10.28c9.42,0,17.08-7,17.08-15.64V68.94c0-5-4.43-9-9.87-9ZM1341,62.74h-9.62c-4.08,0-7.4-3-7.4-6.77V42.17a2.19,2.19,0,0,1,2.28-2.09,2.33,2.33,0,0,1,2.42,2.23v9.57c0,3.62,3.21,6.56,7.16,6.56H1341ZM1367.69,103h-20.56V36.42c0-5.19,4.61-9.42,10.28-9.42s10.28,4.23,10.28,9.42Zm27.37-17.68c0,5.5-4.89,10-10.9,10h-10.28v-6.8h6c4.28,0,7.76-3.19,7.76-7.11V68.94a3.54,3.54,0,0,1,3.68-3.37h0a3.55,3.55,0,0,1,3.69,3.37Zm0,0Z" fill="#009341"/><path d="M1005.09,108.2a45.66,45.66,0,0,1-7.57-.62C979,104.46,969.23,94.14,965.1,88.26a5.24,5.24,0,0,1,6-8c5.9,2.09,17.56,4.81,29.38-.4,7.88-3.47,15.61-18.45,19.33-25.65a40.91,40.91,0,0,1,3.14-5.59,20.31,20.31,0,0,1,10.3-7.3,17.14,17.14,0,0,1,8-.32,70.12,70.12,0,0,0,4.24-15.22,5.27,5.27,0,0,1,2.4-3.6,5.19,5.19,0,0,1,4.29-.58l9.16,2.76a5.25,5.25,0,0,1,3.57,6.29c-1,3.94-3.62,13.4-8,21,4.69,7.27,4,17-2.18,27.1a65.55,65.55,0,0,1-22.82,21.82,53.76,53.76,0,0,1-26.85,7.61ZM973.42,88c4.5,4.89,12.4,10.87,25.2,13,20.54,3.45,41.31-10.66,50.43-25.68,3-5,7.19-14.34,1.32-21.31a3.34,3.34,0,0,1-.25-4c4.09-6.3,6.76-15.06,8-19.63l-6.28-1.9a75,75,0,0,1-5.62,17.91,3.34,3.34,0,0,1-4.14,1.74c-5.26-1.86-9.92-.29-13.83,4.66-.38.48-1.48,2.62-2.45,4.5-4.69,9.08-12.53,24.28-22.56,28.7-11.32,5-22.37,3.85-29.79,2Zm0,0Z" fill="#009341"/><path d="M232.77,36.2l.48-.48a6.69,6.69,0,0,0,0-9.44l-4.83-4.83a6.66,6.66,0,0,0-9.44,0l-.48.48-1.88-1.88a1.59,1.59,0,0,0-2.26,0l-2.46,2.46a1.59,1.59,0,0,0,0,2.26l1.88,1.88L210,30.43l-1.88-1.88a1.62,1.62,0,0,0-2.27,0L203.4,31a1.59,1.59,0,0,0,0,2.26l1.88,1.88-14,14A21.52,21.52,0,0,0,184.45,48a19.78,19.78,0,0,0-14.11,5.76A19.57,19.57,0,0,0,167,58.31a5,5,0,0,1-4.4,2.62v3.34h0V60.93a27.37,27.37,0,0,0-19.53,8,26.76,26.76,0,0,0-6.21,9.69,28.19,28.19,0,0,0-1.72,11,25.8,25.8,0,0,0,.31,3.16,31.24,31.24,0,0,0,8.93,17.59,31.77,31.77,0,0,0,10.31,6.92,30.32,30.32,0,0,0,11.64,2.34,27.11,27.11,0,0,0,27.42-25.52c.05-.65.07-1.32.07-2a5,5,0,0,1,2.63-4.4,19.54,19.54,0,0,0,4.55-3.39,19.83,19.83,0,0,0,5.71-12.69,21.54,21.54,0,0,0-1.08-8.26l14-14,1.87,1.88a1.62,1.62,0,0,0,2.27,0l2.46-2.46a1.61,1.61,0,0,0,0-2.26l-1.88-1.88,3.78-3.78,1.88,1.88a1.61,1.61,0,0,0,2.26,0l2.46-2.46a1.62,1.62,0,0,0,0-2.27ZM197.54,62c3.67,5.69,3.29,13-1.32,17.65a13,13,0,0,1-3,2.23,11.66,11.66,0,0,0-6.14,10.28c0,.67,0,1.33-.09,2A20.45,20.45,0,0,1,166.27,113,24.45,24.45,0,0,1,149,105.65a24.87,24.87,0,0,1-6.82-12.49,21.26,21.26,0,0,1,5.51-19.55,20.71,20.71,0,0,1,14.81-6h0a11.68,11.68,0,0,0,10.28-6.14,12.76,12.76,0,0,1,2.22-3,13.13,13.13,0,0,1,9.39-3.8,15.31,15.31,0,0,1,8.26,2.47l31-31L228.53,31Z" fill="#009341"/><path d="M188.09,66.61a10.91,10.91,0,1,0,3.19,7.71A10.83,10.83,0,0,0,188.09,66.61Zm-4.73,10.7a4.22,4.22,0,1,1,0-6A4.21,4.21,0,0,1,183.36,77.31Z" fill="#009341"/><path d="M169.3,95.9,158.8,85.4a3.34,3.34,0,1,0-4.72,4.72l10.5,10.5a3.34,3.34,0,0,0,4.72-4.72Z" fill="#009341"/></svg>