<svg xmlns="http://www.w3.org/2000/svg" width="1500" height="139.13" viewBox="0 0 1500 139.13"><path d="M1500,84.13c-82.24,0-92.34,7.7-156.88,9.58-3.71.11-3.08.2-7.19.27" fill="none" stroke="#d71d24" stroke-miterlimit="10" stroke-width="3"/><path d="M1276.85,93.7c-3.76-.11-2.74-.24-6.15-.39-54.86-2.39-68.45-9.18-145.71-9.18-93.75,0-93.75,10-187.5,10s-93.75-10-187.5-10c-81.52,0-92.16,7.56-155.19,9.54-2.38.07-.73.14-3.27.19" fill="none" stroke="#d71d24" stroke-miterlimit="10" stroke-width="3"/><path d="M223.65,95.18c3.28-.1,3.84-1.79,6.85-1.92,53.85-2.44,67.81-9.13,144.5-9.13,83.94,0,92.71,8,160.94,9.69" fill="none" stroke="#d71d24" stroke-miterlimit="10" stroke-width="3"/><path d="M138.44,92.83c-2.55-.12-1.91,0-4.29-.12C88.49,90,71.53,84.13,0,84.13" fill="none" stroke="#d71d24" stroke-miterlimit="10" stroke-width="3"/><line x1="317.22" y1="99.28" x2="333.08" y2="99.28" fill="none" stroke="#d71d24" stroke-miterlimit="10" stroke-width="3"/><line x1="88.22" y1="111.33" x2="104.08" y2="111.33" fill="none" stroke="#d71d24" stroke-miterlimit="10" stroke-width="3"/><line x1="404.76" y1="111.33" x2="420.62" y2="111.33" fill="none" stroke="#d71d24" stroke-miterlimit="10" stroke-width="3"/><line x1="670.56" y1="115.77" x2="686.42" y2="115.77" fill="none" stroke="#d71d24" stroke-miterlimit="10" stroke-width="3"/><line x1="928.75" y1="109.43" x2="944.6" y2="109.43" fill="none" stroke="#d71d24" stroke-miterlimit="10" stroke-width="3"/><line x1="1153.94" y1="111.96" x2="1169.8" y2="111.96" fill="none" stroke="#d71d24" stroke-miterlimit="10" stroke-width="3"/><line x1="1464.15" y1="103.72" x2="1480" y2="103.72" fill="none" stroke="#d71d24" stroke-miterlimit="10" stroke-width="3"/><line x1="721.31" y1="100.55" x2="738.44" y2="100.55" fill="none" stroke="#d71d24" stroke-miterlimit="10" stroke-width="3"/><line x1="1114.61" y1="98.01" x2="1129.84" y2="98.01" fill="none" stroke="#d71d24" stroke-miterlimit="10" stroke-width="3"/><path d="M229,71.46l-25.07,1.66c-1.81-11.3-11.18-36.58-23.81-35.75S161.54,64.5,161.23,76L136.16,77.6A3.41,3.41,0,0,0,133,81.21l.52,7.74a18.91,18.91,0,0,0,20.1,17.6l61.89-4.09a18.92,18.92,0,0,0,17.61-20.1l-.51-7.74A3.39,3.39,0,0,0,229,71.46ZM183.63,90.3,171,82.09l24-1.59Zm-18.35-7.83-11.42,9.8-12.6-8.21Zm-8.93,16.6,12.22-10.49,13.49,8.79a3.18,3.18,0,0,0,1,.44l-27.65,1.83a3,3,0,0,0,.94-.57Zm44.43-18.95,24-1.58-11.41,9.79ZM171.71,57.05c3.2-9.31,6.78-12.77,8.86-12.91s6.09,2.83,10.49,11.63a70.45,70.45,0,0,1,6.09,17.8L168,75.5a70.27,70.27,0,0,1,3.69-18.45ZM141.05,92l11.24,7.33a3.34,3.34,0,0,0,1,.44h-.13A12.13,12.13,0,0,1,141.05,92Zm74,3.69h-.12a3.57,3.57,0,0,0,.94-.58l10.18-8.74a12.14,12.14,0,0,1-11,9.31Zm0,0Zm-25.48-1.57,8.75-7.52,11.22,7.31,2.27,1.48a3.43,3.43,0,0,0,1,.44l-27.65,1.83a3.48,3.48,0,0,0,.94-.57l3.46-3Z" fill="#d71d24"/><path d="M586.36,62h-.05c-5.44,0-9.86,4.06-9.86,9V83.47a1.51,1.51,0,0,1-1.58,1.44h-6V38.49c0-8.32-7.38-15.08-16.46-15.08s-16.47,6.76-16.47,15.08V54.84h-5.16a.94.94,0,0,1-1-.89V44.37c0-4.35-3.86-7.88-8.61-7.88s-8.46,3.47-8.46,7.74V58c0,6.86,6.1,12.44,13.58,12.44h9.62v37.43a3,3,0,0,0,3.09,2.83h26.75a3,3,0,0,0,3.09-2.83V103h10.28c9.42,0,17.08-7,17.08-15.65V71c0-5-4.42-9-9.87-9Zm-50.42,2.84h-9.62c-4.07,0-7.39-3-7.39-6.77V44.23a2.19,2.19,0,0,1,2.27-2.08,2.34,2.34,0,0,1,2.43,2.22V54c0,3.62,3.21,6.56,7.15,6.56h5.16Zm26.75,40.27H542.13V38.49c0-5.19,4.61-9.42,10.28-9.42s10.28,4.23,10.28,9.42Zm27.36-17.69c0,5.51-4.89,10-10.9,10H568.87v-6.8h6c4.28,0,7.76-3.19,7.76-7.11V71a3.54,3.54,0,0,1,3.68-3.37h.05A3.54,3.54,0,0,1,590.05,71Zm0,0Z" fill="#d71d24"/><path d="M1036,32.3H981.39a2.59,2.59,0,0,0-2.59,2.59,15.77,15.77,0,0,0,13.71,15.62c1.2,4.15,4.75,13.67,12.42,16.1V97.29l-10.24,10.25a2.58,2.58,0,0,0,1.83,4.42h24.34a2.59,2.59,0,0,0,1.83-4.42l-10.25-10.25V66.61c7.66-2.43,11.21-12,12.42-16.1a15.78,15.78,0,0,0,13.72-15.62,2.6,2.6,0,0,0-2.6-2.59Zm-21.38,74.48h-11.82l5.91-5.91Zm8.23-61.32a2.58,2.58,0,0,0-2.54,2c0,.15-3.3,14.49-11.6,14.49s-11.57-14.34-11.61-14.48a2.59,2.59,0,0,0-2.53-2.06,10.6,10.6,0,0,1-10.25-8h48.77a10.59,10.59,0,0,1-10.24,8Zm0,0" fill="#d71d24"/><path d="M1306.5,108.2a45.69,45.69,0,0,1-7.58-.62c-18.56-3.12-28.28-13.44-32.42-19.32a5.25,5.25,0,0,1,6-8c5.9,2.09,17.56,4.81,29.38-.4,7.88-3.47,15.61-18.45,19.32-25.65a40.56,40.56,0,0,1,3.15-5.59,20.27,20.27,0,0,1,10.3-7.3,17.14,17.14,0,0,1,8-.32,70.12,70.12,0,0,0,4.24-15.22,5.26,5.26,0,0,1,6.69-4.18l9.15,2.76a5.24,5.24,0,0,1,3.57,6.29c-1,3.94-3.62,13.4-8,21,4.7,7.27,4,17-2.18,27.1a65.51,65.51,0,0,1-22.81,21.82,53.76,53.76,0,0,1-26.85,7.61ZM1274.83,88c4.49,4.89,12.4,10.87,25.2,13,20.53,3.45,41.31-10.66,50.43-25.68,3-5,7.19-14.34,1.32-21.31a3.34,3.34,0,0,1-.25-4c4.08-6.3,6.76-15.06,8-19.63l-6.28-1.9a74.53,74.53,0,0,1-5.62,17.91,3.34,3.34,0,0,1-4.14,1.74c-5.26-1.86-9.91-.29-13.83,4.66-.37.48-1.47,2.62-2.44,4.5-4.69,9.08-12.53,24.28-22.57,28.7-11.31,5-22.37,3.85-29.78,2Zm0,0Z" fill="#d71d24"/></svg>